<svg id="Layer_1" data-name="Layer 1" xmlns="http://www.w3.org/2000/svg" viewBox="0 0 296.39 119.09"><defs><style>.cls-1{fill:#c97dff;}.cls-2{fill:#bde59c;}</style></defs><title>photobucket</title><path d="M264.18,308a20,20,0,0,1,7.5,7.54,22.24,22.24,0,0,1,.07,21.26,19.75,19.75,0,0,1-17.58,10.24,19.43,19.43,0,0,1-8.93-2.06,18.52,18.52,0,0,1-6.67-5.67v22a2.82,2.82,0,0,1-2.93,2.92,2.7,2.7,0,0,1-2.06-.82,2.9,2.9,0,0,1-.79-2.1v-16.8a2.3,2.3,0,0,1-.07-.68V326.23a21.16,21.16,0,0,1,2.73-10.65A20,20,0,0,1,243,308a22,22,0,0,1,21.23,0Zm-2.85,31.77a14.54,14.54,0,0,0,5.47-5.59,17,17,0,0,0,0-16,14.76,14.76,0,0,0-5.47-5.62,14.92,14.92,0,0,0-7.76-2.06,14.73,14.73,0,0,0-7.73,2.06,14.91,14.91,0,0,0-5.44,5.62,16.18,16.18,0,0,0-2,8,16.81,16.81,0,0,0,.07,1.87.89.89,0,0,1,.08.38,15,15,0,0,0,4.91,9.6,14.52,14.52,0,0,0,10.09,3.75A15.18,15.18,0,0,0,261.33,339.81Z" transform="translate(-160.58 -288.13)"/><path d="M314.73,307.48a16.17,16.17,0,0,1,6.63,6.56,20.92,20.92,0,0,1,2.4,10.31v19.5a2.82,2.82,0,0,1-2.85,2.86,2.85,2.85,0,0,1-2.1-.83,2.74,2.74,0,0,1-.82-2v-19.5q0-6.66-3.71-10.16a13.65,13.65,0,0,0-9.72-3.48,15.07,15.07,0,0,0-6.63,1.42,11.64,11.64,0,0,0-4.69,3.94,9.65,9.65,0,0,0-1.73,5.59v22.19a2.7,2.7,0,0,1-2.85,2.86,2.94,2.94,0,0,1-2.1-.79,2.73,2.73,0,0,1-.82-2.07V291.06a2.82,2.82,0,0,1,2.92-2.93,2.75,2.75,0,0,1,2.07.83,2.93,2.93,0,0,1,.78,2.1v20.1a17.36,17.36,0,0,1,6-4.35,18.38,18.38,0,0,1,7.65-1.58A20.12,20.12,0,0,1,314.73,307.48Z" transform="translate(-160.58 -288.13)"/><path d="M365.84,308a19.83,19.83,0,0,1,7.46,7.5,22.45,22.45,0,0,1,0,21.42,19.51,19.51,0,0,1-7.46,7.46,22.51,22.51,0,0,1-21.38,0,19.44,19.44,0,0,1-7.46-7.46,21.31,21.31,0,0,1-2.7-10.69A21.54,21.54,0,0,1,337,315.5a19.48,19.48,0,0,1,7.46-7.5,21.41,21.41,0,0,1,10.69-2.69A21.18,21.18,0,0,1,365.84,308Zm-18.41,4.58a14.43,14.43,0,0,0-5.48,5.59,17.18,17.18,0,0,0,0,16.05,14.5,14.5,0,0,0,5.48,5.59,16,16,0,0,0,15.56,0,14.37,14.37,0,0,0,5.4-5.59,17.49,17.49,0,0,0,0-16.05,14.3,14.3,0,0,0-5.4-5.59,16,16,0,0,0-15.56,0Z" transform="translate(-160.58 -288.13)"/><path d="M407.31,341.75a3,3,0,0,1,.75,2.1,2.64,2.64,0,0,1-.9,2,3.21,3.21,0,0,1-2.25.83h-1.57a13.41,13.41,0,0,1-12-7.09,15.26,15.26,0,0,1-1.76-7.39v-20h-4.88a2.56,2.56,0,0,1-1.91-.72,2.36,2.36,0,0,1-.71-1.76,2.48,2.48,0,0,1,.71-1.84,2.59,2.59,0,0,1,1.91-.71h4.88V295.56a2.93,2.93,0,0,1,.78-2.1,2.75,2.75,0,0,1,2.07-.83,2.82,2.82,0,0,1,2.92,2.93v11.62h8.48a2.6,2.6,0,0,1,1.91.71,2.52,2.52,0,0,1,.71,1.84,2.4,2.4,0,0,1-.71,1.76,2.57,2.57,0,0,1-1.91.72h-8.48v20a8.86,8.86,0,0,0,2.25,6.26,7.5,7.5,0,0,0,5.78,2.44h2A2.54,2.54,0,0,1,407.31,341.75Z" transform="translate(-160.58 -288.13)"/><path d="M446.76,308a19.83,19.83,0,0,1,7.46,7.5,22.45,22.45,0,0,1,0,21.42,19.51,19.51,0,0,1-7.46,7.46,22.51,22.51,0,0,1-21.38,0,19.51,19.51,0,0,1-7.46-7.46,21.31,21.31,0,0,1-2.7-10.69A21.54,21.54,0,0,1,418,315.5a19.55,19.55,0,0,1,7.46-7.5,21.41,21.41,0,0,1,10.69-2.69A21.18,21.18,0,0,1,446.76,308Zm-18.41,4.58a14.5,14.5,0,0,0-5.48,5.59,17.25,17.25,0,0,0,0,16.05,14.57,14.57,0,0,0,5.48,5.59,16,16,0,0,0,15.56,0,14.37,14.37,0,0,0,5.4-5.59,17.49,17.49,0,0,0,0-16.05,14.3,14.3,0,0,0-5.4-5.59,16,16,0,0,0-15.56,0Z" transform="translate(-160.58 -288.13)"/><path d="M160.65,367.92v-16.8a2.9,2.9,0,0,1,.79-2.1,2.71,2.71,0,0,1,2.06-.83,2.84,2.84,0,0,1,2.93,2.93v22a18.58,18.58,0,0,1,6.67-5.66,19.46,19.46,0,0,1,8.93-2.06,19.71,19.71,0,0,1,17.58,10.23,22.26,22.26,0,0,1-.07,21.27,20,20,0,0,1-7.5,7.54,22,22,0,0,1-21.23,0,20,20,0,0,1-7.5-7.54,21.16,21.16,0,0,1-2.73-10.65V368.59A2.27,2.27,0,0,1,160.65,367.92Zm20.78,34a14.92,14.92,0,0,0,7.76-2.06,14.72,14.72,0,0,0,5.47-5.63,17,17,0,0,0,0-16,14.54,14.54,0,0,0-5.47-5.59,15.18,15.18,0,0,0-7.76-2,14.54,14.54,0,0,0-10.09,3.75,15,15,0,0,0-4.91,9.6.81.81,0,0,1-.08.37,17.13,17.13,0,0,0-.07,1.88,16.12,16.12,0,0,0,2,8,14.78,14.78,0,0,0,13.17,7.69Z" transform="translate(-160.58 -288.13)"/><path d="M250.05,366.53a2.71,2.71,0,0,1,.83,2.06v35.25a2.84,2.84,0,0,1-2.93,2.93,2.71,2.71,0,0,1-2.06-.83,2.9,2.9,0,0,1-.79-2.1v-2.55a17.49,17.49,0,0,1-6,4.35,18.54,18.54,0,0,1-7.65,1.58,20,20,0,0,1-9.56-2.25,16.14,16.14,0,0,1-6.64-6.56,20.94,20.94,0,0,1-2.4-10.32v-19.5a2.83,2.83,0,0,1,2.85-2.85,2.85,2.85,0,0,1,2.1.83,2.75,2.75,0,0,1,.83,2v19.5q0,6.68,3.71,10.16a13.58,13.58,0,0,0,9.71,3.49,15.14,15.14,0,0,0,6.64-1.42,11.78,11.78,0,0,0,4.69-3.94,9.64,9.64,0,0,0,1.72-5.59v-22.2a2.71,2.71,0,0,1,2.85-2.85A2.9,2.9,0,0,1,250.05,366.53Z" transform="translate(-160.58 -288.13)"/><path d="M297.15,372.57a2.28,2.28,0,0,1,.6,1.57,2.57,2.57,0,0,1-1.28,2.1,2.51,2.51,0,0,1-1.42.45,3,3,0,0,1-2.18-1.12,15.43,15.43,0,0,0-4.95-3.72,14.31,14.31,0,0,0-6-1.23,13.76,13.76,0,0,0-7.35,2,13.21,13.21,0,0,0-5,5.59,18.11,18.11,0,0,0-1.77,8.1,16.88,16.88,0,0,0,1.88,8,13.94,13.94,0,0,0,5.25,5.59,14.7,14.7,0,0,0,7.72,2,14.15,14.15,0,0,0,9.68-3.22,3.1,3.1,0,0,1,2-.83,2.58,2.58,0,0,1,1.65.6,2.64,2.64,0,0,1,1.05,2,2.14,2.14,0,0,1-.75,1.65,19.25,19.25,0,0,1-13.65,5,20.35,20.35,0,0,1-10.5-2.73,19.79,19.79,0,0,1-7.31-7.5,21.47,21.47,0,0,1-2.66-10.62,22.44,22.44,0,0,1,2.55-10.76,19,19,0,0,1,7.05-7.46,19.28,19.28,0,0,1,10.12-2.7A18.7,18.7,0,0,1,297.15,372.57Z" transform="translate(-160.58 -288.13)"/><path d="M340.72,404.37a2.62,2.62,0,0,1-1.05,2,3,3,0,0,1-1.8.68,2.48,2.48,0,0,1-2-1.05L320.4,387l-5.63,5.1v11.78A2.81,2.81,0,0,1,314,406a2.86,2.86,0,0,1-4.92-2.06V351a2.85,2.85,0,1,1,5.7,0v34.13L335.92,366a2.63,2.63,0,0,1,1.8-.75,2.35,2.35,0,0,1,1.88.9,2.89,2.89,0,0,1,.82,1.8,2.42,2.42,0,0,1-1,1.88l-15,13.57,15.6,19.2A2.51,2.51,0,0,1,340.72,404.37Z" transform="translate(-160.58 -288.13)"/><path d="M375.52,368a17.68,17.68,0,0,1,6.64,7.17,22.31,22.31,0,0,1,2.36,10.42,2.5,2.5,0,0,1-.75,1.91,2.7,2.7,0,0,1-1.95.72h-30.3a14.76,14.76,0,0,0,15.3,13.8,16.57,16.57,0,0,0,5.44-.94,13.06,13.06,0,0,0,4.39-2.36,3.27,3.27,0,0,1,2-.75,2.79,2.79,0,0,1,1.65.6,2.7,2.7,0,0,1,1,2,2.29,2.29,0,0,1-.83,1.73,20.28,20.28,0,0,1-6.3,3.48,21.72,21.72,0,0,1-18.07-1.27,19,19,0,0,1-7.39-7.43,21.7,21.7,0,0,1-2.66-10.76,23,23,0,0,1,2.51-10.84,18.57,18.57,0,0,1,7-7.42,19.47,19.47,0,0,1,10.16-2.66A18.62,18.62,0,0,1,375.52,368Zm-19.27,6.12a15.29,15.29,0,0,0-4.58,9.3h27.45a14.66,14.66,0,0,0-4.2-9.3,12.63,12.63,0,0,0-9.22-3.53A13.26,13.26,0,0,0,356.25,374.07Z" transform="translate(-160.58 -288.13)"/><path d="M414.3,401.82a3,3,0,0,1,.75,2.1,2.63,2.63,0,0,1-.9,2,3.21,3.21,0,0,1-2.25.83h-1.58a13.41,13.41,0,0,1-12-7.09,15.26,15.26,0,0,1-1.77-7.39v-20h-4.87a2.56,2.56,0,0,1-1.91-.72,2.37,2.37,0,0,1-.72-1.76,2.49,2.49,0,0,1,.72-1.84,2.59,2.59,0,0,1,1.91-.71h4.87V355.62a2.94,2.94,0,0,1,.79-2.1,2.73,2.73,0,0,1,2.06-.83,2.84,2.84,0,0,1,2.93,2.93v11.62h8.47a2.63,2.63,0,0,1,1.92.71,2.52,2.52,0,0,1,.71,1.84,2.4,2.4,0,0,1-.71,1.76,2.59,2.59,0,0,1-1.92.72H402.3v20a8.86,8.86,0,0,0,2.25,6.26,7.48,7.48,0,0,0,5.77,2.44h2A2.52,2.52,0,0,1,414.3,401.82Z" transform="translate(-160.58 -288.13)"/><circle class="cls-1" cx="93.03" cy="38.06" r="12.17"/><circle class="cls-2" cx="20.89" cy="98.35" r="12.17"/></svg>